<svg width="89" height="89" viewBox="0 0 89 89" fill="none" xmlns="http://www.w3.org/2000/svg">
<path d="M44.4892 88.9783C69.0598 88.9783 88.9783 69.0598 88.9783 44.4892C88.9783 19.9185 69.0598 0 44.4892 0C19.9185 0 0 19.9185 0 44.4892C0 69.0598 19.9185 88.9783 44.4892 88.9783Z" fill="#EBEBEB"/>
<path d="M44.9323 41.3089V48.9381H57.5492C57.0365 52.2139 53.7346 58.531 44.9323 58.531C37.3379 58.531 31.1424 52.2487 31.1424 44.4891C31.1424 36.7296 37.3466 30.4473 44.9323 30.4473C49.2509 30.4473 52.1444 32.2807 53.8041 33.8708L59.8344 28.0577C55.959 24.443 50.9366 22.2446 44.9323 22.2446C32.637 22.2446 22.6877 32.1938 22.6877 44.4891C22.6877 56.7845 32.637 66.7337 44.9323 66.7337C57.7751 66.7337 66.2906 57.7055 66.2906 44.9931C66.2906 43.5333 66.1342 42.4124 65.943 41.3089H44.9323Z" fill="#4D6AB2"/>
</svg>
