<svg width="89" height="89" viewBox="0 0 89 89" fill="none" xmlns="http://www.w3.org/2000/svg">
<path d="M44.4892 88.9783C69.0598 88.9783 88.9783 69.0598 88.9783 44.4892C88.9783 19.9185 69.0598 0 44.4892 0C19.9185 0 0 19.9185 0 44.4892C0 69.0598 19.9185 88.9783 44.4892 88.9783Z" fill="#EBEBEB"/>
<path d="M60.5644 23.2004C63.3102 23.2004 65.526 25.4248 65.6563 28.0403V70.1225L60.4253 65.6823L57.5492 63.0668L54.4124 60.3384L55.7244 64.6483H28.2837C25.5465 64.6483 23.3221 62.5629 23.3221 59.8083V28.049C23.3221 25.4335 25.5465 23.2091 28.301 23.2091H60.5557L60.5644 23.2004ZM48.5992 34.314H48.5384L48.1474 34.705C52.1966 35.878 54.1604 37.7115 54.1604 37.7115C51.5449 36.4081 49.1988 35.7564 46.844 35.487C45.1409 35.2264 43.4465 35.3654 42.0041 35.487H41.613C40.692 35.487 38.7369 35.878 36.1214 36.9208C35.209 37.3205 34.6877 37.5812 34.6877 37.5812C34.6877 37.5812 36.6428 35.6261 40.9613 34.5747L40.7007 34.314C40.7007 34.314 37.4335 34.1923 33.9056 36.7991C33.9056 36.7991 30.3778 42.9424 30.3778 50.5195C30.3778 50.5195 32.3329 53.917 37.6942 54.0474C37.6942 54.0474 38.4762 53.0046 39.2669 52.0923C36.2604 51.1799 35.0874 49.3464 35.0874 49.3464C35.0874 49.3464 35.3481 49.4768 35.7391 49.7375H35.852C35.9129 49.7375 35.9389 49.7635 35.965 49.7983V49.807C35.9998 49.8417 36.0258 49.8678 36.078 49.8678C36.721 50.1372 37.364 50.3979 37.894 50.6498C38.8064 51.0409 39.9794 51.4406 41.4132 51.7012C43.2292 51.9619 45.3147 52.0923 47.6868 51.7012C48.8599 51.4406 50.033 51.1799 51.206 50.6585C51.9707 50.2675 52.9091 49.8765 53.9344 49.2161C53.9344 49.2161 52.7614 51.0495 49.6246 51.9619C50.2676 52.8743 51.1799 53.917 51.1799 53.917C56.5412 53.8041 58.6267 50.3979 58.7483 50.5456C58.7483 42.9772 55.2031 36.8252 55.2031 36.8252C52.0054 34.453 49.0163 34.3661 48.4863 34.3661L48.5992 34.314ZM48.9294 42.9424C50.3023 42.9424 51.4146 44.1155 51.4146 45.5492C51.4146 46.9916 50.3023 48.1647 48.9294 48.1647C47.5565 48.1647 46.4443 46.9916 46.4443 45.5579C46.453 44.1155 47.5652 42.9424 48.9294 42.9424ZM40.049 42.9424C41.4132 42.9424 42.5254 44.1155 42.5254 45.5492C42.5254 46.9916 41.4132 48.1647 40.0403 48.1647C38.6761 48.1647 37.5551 46.9916 37.5551 45.5579C37.5638 44.1155 38.6761 42.9424 40.049 42.9424Z" fill="#4D6AB2"/>
</svg>
