<svg width="520" height="235" viewBox="0 0 520 235" fill="none" xmlns="http://www.w3.org/2000/svg">
<g filter="url(#filter0_d_60_11)">
<rect x="95" y="69" width="334" height="90" rx="20" fill="#D9D9D9"/>
</g>
<g filter="url(#filter1_d_60_11)">
<path d="M452.189 35.2516C469.446 24.9853 505.568 3.56226 512.004 0L519 12.9874L458.486 47.1258L474.576 59H434L439.247 19.2956L452.189 35.2516Z" fill="#7F97D4"/>
<path d="M67.0247 35.2516C49.9712 24.9853 14.2741 3.56226 7.91358 0L1 12.9874L60.8025 47.1258L44.9012 59H85L79.8148 19.2956L67.0247 35.2516Z" fill="#7F97D4"/>
<path d="M452.189 194.748C469.446 205.015 505.568 226.438 512.004 230L519 217.013L458.486 182.874L474.576 171H434L439.247 210.704L452.189 194.748Z" fill="#7F97D4"/>
<path d="M67.0247 194.748C49.9712 205.015 14.2741 226.438 7.91358 230L1 217.013L60.8025 182.874L44.9012 171H85L79.8148 210.704L67.0247 194.748Z" fill="#7F97D4"/>
</g>
<defs>
<filter id="filter0_d_60_11" x="95" y="69" width="338" height="97" filterUnits="userSpaceOnUse" color-interpolation-filters="sRGB">
<feFlood flood-opacity="0" result="BackgroundImageFix"/>
<feColorMatrix in="SourceAlpha" type="matrix" values="0 0 0 0 0 0 0 0 0 0 0 0 0 0 0 0 0 0 127 0" result="hardAlpha"/>
<feOffset dx="4" dy="7"/>
<feComposite in2="hardAlpha" operator="out"/>
<feColorMatrix type="matrix" values="0 0 0 0 0.866667 0 0 0 0 0.666667 0 0 0 0 0.666667 0 0 0 1 0"/>
<feBlend mode="normal" in2="BackgroundImageFix" result="effect1_dropShadow_60_11"/>
<feBlend mode="normal" in="SourceGraphic" in2="effect1_dropShadow_60_11" result="shape"/>
</filter>
<filter id="filter1_d_60_11" x="0" y="0" width="520" height="235" filterUnits="userSpaceOnUse" color-interpolation-filters="sRGB">
<feFlood flood-opacity="0" result="BackgroundImageFix"/>
<feColorMatrix in="SourceAlpha" type="matrix" values="0 0 0 0 0 0 0 0 0 0 0 0 0 0 0 0 0 0 127 0" result="hardAlpha"/>
<feOffset dy="4"/>
<feGaussianBlur stdDeviation="0.5"/>
<feComposite in2="hardAlpha" operator="out"/>
<feColorMatrix type="matrix" values="0 0 0 0 0.866667 0 0 0 0 0.666667 0 0 0 0 0.666667 0 0 0 1 0"/>
<feBlend mode="normal" in2="BackgroundImageFix" result="effect1_dropShadow_60_11"/>
<feBlend mode="normal" in="SourceGraphic" in2="effect1_dropShadow_60_11" result="shape"/>
</filter>
</defs>
</svg>
